<?xml version="1.0" standalone="no"?>
<!DOCTYPE svg PUBLIC "-//W3C//DTD SVG 1.1//EN" "http://www.w3.org/Graphics/SVG/1.1/DTD/svg11.dtd">
<svg version="1.1" xmlns="http://www.w3.org/2000/svg" viewBox="0 0 551.1839678705246 324.83455462283985" width="551.1839678705246" height="324.83455462283985"><!-- svg-source:excalidraw --><metadata></metadata><defs><style class="style-fonts">
      </style></defs><rect x="0" y="0" width="551.1839678705246" height="324.83455462283985" fill="#121212"></rect><g stroke-linecap="round" transform="translate(10 10) rotate(0 265.5919839352623 152.41727731141992)"><path d="M32 0 C156.8 3.46, 282.19 5.57, 499.18 0 M32 0 C165.07 2.45, 296.37 2.88, 499.18 0 M499.18 0 C523.2 2.19, 531.78 13.22, 531.18 32 M499.18 0 C516.82 -3.59, 527.88 7.67, 531.18 32 M531.18 32 C529.11 110.84, 527.41 194.68, 531.18 272.83 M531.18 32 C533.22 97.39, 532.6 161.66, 531.18 272.83 M531.18 272.83 C528.21 296.75, 516.75 301.38, 499.18 304.83 M531.18 272.83 C532.06 297.3, 521.97 308.7, 499.18 304.83 M499.18 304.83 C386.63 305.81, 273.29 307.04, 32 304.83 M499.18 304.83 C396.04 303.6, 292.87 304.16, 32 304.83 M32 304.83 C12.53 308, 3.07 291.04, 0 272.83 M32 304.83 C13.81 309.28, -2.99 291.11, 0 272.83 M0 272.83 C1.37 225.29, -0.25 172.04, 0 32 M0 272.83 C1.5 220.69, 2.48 170.68, 0 32 M0 32 C1.54 7.12, 13 -0.53, 32 0 M0 32 C1.34 12.23, 12.54 -1.07, 32 0" stroke="#d3d3d3" stroke-width="2" fill="none"></path></g><g stroke-linecap="round" transform="translate(38.18527176455842 32.11459784603812) rotate(0 73.49851637065632 60.92354896800714)"><path d="M30.46 0 C49.81 1.59, 68.46 -0.7, 116.54 0 M30.46 0 C64.38 -3.32, 94.88 -2.61, 116.54 0 M116.54 0 C133.22 -3.61, 149.88 13.19, 147 30.46 M116.54 0 C140.51 1.81, 148.31 8.49, 147 30.46 M147 30.46 C147.11 51.47, 146.73 71.11, 147 91.39 M147 30.46 C147.19 52.1, 144.61 77.47, 147 91.39 M147 91.39 C150.92 114.84, 135.02 118.35, 116.54 121.85 M147 91.39 C144.33 116.11, 138.4 120.54, 116.54 121.85 M116.54 121.85 C88.42 124.15, 59.85 120.73, 30.46 121.85 M116.54 121.85 C88.79 122.67, 60.03 123.75, 30.46 121.85 M30.46 121.85 C13.48 125.45, 3.87 112.24, 0 91.39 M30.46 121.85 C8.99 119.31, 4 113.21, 0 91.39 M0 91.39 C3.36 72.4, 0.97 43.44, 0 30.46 M0 91.39 C-1.68 66.63, -2 43.59, 0 30.46 M0 30.46 C0.57 11.16, 8.56 2.68, 30.46 0 M0 30.46 C-0.48 14.24, 14.43 -1.15, 30.46 0" stroke="#d3d3d3" stroke-width="2" fill="none"></path></g><g stroke-linecap="round" transform="translate(214.45162518445073 31.030548932016586) rotate(0 73.49851637065632 60.92354896800714)"><path d="M30.46 0 C57.71 -2.43, 82.19 -0.96, 116.54 0 M30.46 0 C62.32 -2.09, 91.28 -0.93, 116.54 0 M116.54 0 C134.25 -2.37, 143.34 12.05, 147 30.46 M116.54 0 C135.97 -3.52, 148.53 7.84, 147 30.46 M147 30.46 C145.4 41.86, 149.13 55.76, 147 91.39 M147 30.46 C146.24 49.28, 148.17 69.98, 147 91.39 M147 91.39 C148.01 113.42, 136.44 119.09, 116.54 121.85 M147 91.39 C143.11 109.91, 134.37 122.87, 116.54 121.85 M116.54 121.85 C95.32 118.74, 69.38 122.94, 30.46 121.85 M116.54 121.85 C83.08 120.5, 50.43 119.85, 30.46 121.85 M30.46 121.85 C13.31 122.64, 0.23 112.62, 0 91.39 M30.46 121.85 C14.27 118.71, 3.01 114.6, 0 91.39 M0 91.39 C0.84 78.1, -1.26 68.94, 0 30.46 M0 91.39 C0.28 79.04, -1.81 64.79, 0 30.46 M0 30.46 C2.57 6.25, 7.77 1.91, 30.46 0 M0 30.46 C0.55 14.37, 11.69 0.15, 30.46 0" stroke="#d3d3d3" stroke-width="2" fill="none"></path></g><g stroke-linecap="round" transform="translate(39.702940244188255 180.19567950137207) rotate(0 73.49851637065632 60.92354896800714)"><path d="M30.46 0 C56.46 5.17, 83.56 3.94, 116.54 0 M30.46 0 C58.56 0.09, 90.14 0.16, 116.54 0 M116.54 0 C135.76 3.15, 147.79 10.38, 147 30.46 M116.54 0 C137.91 4.12, 143.86 13.17, 147 30.46 M147 30.46 C146.47 52.21, 145.69 72.24, 147 91.39 M147 30.46 C145.98 54.43, 146.01 76.08, 147 91.39 M147 91.39 C143.86 114.26, 132.94 119.46, 116.54 121.85 M147 91.39 C149.19 112.24, 141.06 123.39, 116.54 121.85 M116.54 121.85 C88.24 121.54, 64.5 126.51, 30.46 121.85 M116.54 121.85 C96.33 122.06, 74.11 121.51, 30.46 121.85 M30.46 121.85 C11.84 123.22, 2.94 110.28, 0 91.39 M30.46 121.85 C11.38 120.99, 2 111.07, 0 91.39 M0 91.39 C3.7 68.04, 3.11 47.45, 0 30.46 M0 91.39 C-0.34 69.8, 0.45 50.6, 0 30.46 M0 30.46 C1.58 8.56, 9.5 -1.13, 30.46 0 M0 30.46 C4.46 6.57, 12.46 4.09, 30.46 0" stroke="#d3d3d3" stroke-width="2" fill="none"></path></g><g stroke-linecap="round" transform="translate(220.5222991029712 176.72672297650337) rotate(0 73.49851637065632 60.92354896800714)"><path d="M30.46 0 C62.73 1.38, 92.57 1.44, 116.54 0 M30.46 0 C56.82 2.94, 85.71 0.24, 116.54 0 M116.54 0 C135.06 3.12, 144.9 9.62, 147 30.46 M116.54 0 C139.71 -0.44, 146.88 13.48, 147 30.46 M147 30.46 C150.42 50.45, 147.17 77.02, 147 91.39 M147 30.46 C144.15 53.15, 147.81 77.36, 147 91.39 M147 91.39 C145 112.3, 138.05 125.18, 116.54 121.85 M147 91.39 C143.2 111.83, 139.6 120.83, 116.54 121.85 M116.54 121.85 C100.3 126.01, 73.22 122.45, 30.46 121.85 M116.54 121.85 C88.15 124.13, 58.14 124.23, 30.46 121.85 M30.46 121.85 C11.63 124.45, 1.35 113.19, 0 91.39 M30.46 121.85 C10.99 123.98, -3.81 113.36, 0 91.39 M0 91.39 C-2.66 75.43, -1.97 62.35, 0 30.46 M0 91.39 C0.74 72.11, 0.66 50.75, 0 30.46 M0 30.46 C-1.87 11.97, 14.09 -1.09, 30.46 0 M0 30.46 C0.8 9.66, 7.55 0.12, 30.46 0" stroke="#d3d3d3" stroke-width="2" fill="none"></path></g><g transform="translate(390.28435903873486 127.51090227992825) rotate(0 45.09643482329341 -39.4593804703818)" stroke="none"><path fill="#d3d3d3" d="M 0.29,-1.93 Q 0.29,-1.93 1.92,-1.70 3.54,-1.47 5.67,-1.16 7.80,-0.84 10.78,-0.68 13.76,-0.52 17.03,-0.43 20.30,-0.34 23.19,-0.28 26.08,-0.23 28.43,-0.19 30.78,-0.16 32.46,-0.11 34.15,-0.05 35.66,0.00 37.17,0.07 38.59,-0.05 40.00,-0.19 41.39,-0.29 42.79,-0.39 43.98,-0.48 45.17,-0.56 46.28,-0.63 47.38,-0.70 48.47,-0.75 49.56,-0.81 50.77,-0.86 51.98,-0.91 53.08,-0.95 54.19,-0.98 55.63,-1.01 57.08,-1.03 58.58,-1.05 60.08,-1.07 61.57,-1.11 63.06,-1.15 64.26,-1.26 65.45,-1.38 67.77,-1.42 70.08,-1.47 71.22,-1.55 72.36,-1.64 74.02,-1.74 75.68,-1.85 76.96,-2.12 78.24,-2.39 79.56,-2.63 80.89,-2.86 81.95,-3.23 83.00,-3.60 84.35,-3.94 85.71,-4.27 85.16,-6.96 84.61,-9.65 84.58,-12.06 84.55,-14.47 84.60,-17.05 84.66,-19.63 84.68,-21.59 84.71,-23.54 84.69,-25.25 84.68,-26.95 84.65,-28.55 84.63,-30.15 84.59,-31.58 84.55,-33.01 84.51,-34.36 84.47,-35.72 84.43,-36.92 84.38,-38.12 84.28,-40.05 84.18,-41.99 84.09,-43.58 84.01,-45.18 84.12,-46.86 84.24,-48.55 84.40,-50.21 84.56,-51.87 84.55,-53.20 84.53,-54.54 84.69,-56.13 84.84,-57.73 85.03,-59.00 85.21,-60.28 85.37,-61.82 85.52,-63.36 85.55,-64.68 85.57,-66.00 85.75,-67.06 85.93,-68.12 86.09,-69.33 86.25,-70.54 86.54,-71.69 86.82,-72.83 86.94,-73.93 87.05,-75.03 87.06,-78.06 87.08,-81.08 87.17,-81.65 87.26,-82.21 87.53,-82.72 87.80,-83.23 88.22,-83.62 88.63,-84.02 89.15,-84.26 89.67,-84.50 90.24,-84.56 90.81,-84.62 91.37,-84.50 91.93,-84.37 92.43,-84.08 92.92,-83.78 93.29,-83.34 93.66,-82.91 93.87,-82.37 94.08,-81.84 94.11,-81.27 94.14,-80.70 93.99,-80.14 93.84,-79.59 93.51,-79.12 93.19,-78.64 92.74,-78.30 92.28,-77.95 91.74,-77.77 91.19,-77.59 90.62,-77.59 90.05,-77.59 89.50,-77.77 88.96,-77.95 88.50,-78.30 88.05,-78.65 87.73,-79.12 87.41,-79.60 87.25,-80.15 87.10,-80.70 87.13,-81.27 87.16,-81.85 87.37,-82.38 87.59,-82.91 87.96,-83.35 88.33,-83.78 88.82,-84.08 89.31,-84.37 89.87,-84.50 90.43,-84.62 91.00,-84.56 91.57,-84.50 92.09,-84.25 92.61,-84.01 93.03,-83.62 93.44,-83.22 93.71,-82.72 93.98,-82.21 94.07,-81.65 94.16,-81.08 94.16,-81.08 94.16,-81.08 94.12,-78.29 94.08,-75.50 93.84,-74.18 93.60,-72.86 93.32,-71.62 93.04,-70.37 92.80,-68.70 92.55,-67.04 92.34,-65.82 92.13,-64.60 91.99,-63.35 91.85,-62.10 91.68,-60.82 91.51,-59.54 91.27,-58.39 91.03,-57.24 90.82,-55.84 90.60,-54.43 90.52,-52.93 90.43,-51.43 90.17,-49.78 89.91,-48.13 89.67,-46.65 89.43,-45.17 89.35,-43.58 89.26,-41.99 89.16,-40.05 89.06,-38.12 89.02,-36.92 88.97,-35.72 88.93,-34.37 88.90,-33.02 88.86,-31.59 88.83,-30.17 88.82,-28.58 88.81,-27.00 88.83,-25.31 88.85,-23.63 88.96,-21.71 89.07,-19.80 89.31,-17.38 89.56,-14.95 89.98,-12.64 90.40,-10.32 90.86,-8.08 91.32,-5.84 91.34,-4.42 91.36,-3.00 91.19,-1.90 91.02,-0.80 90.18,0.19 89.34,1.18 87.78,1.92 86.23,2.67 84.77,3.09 83.31,3.52 82.18,3.71 81.05,3.89 79.72,4.03 78.39,4.17 77.16,4.34 75.92,4.52 74.47,4.58 73.02,4.64 71.61,4.82 70.20,5.00 68.30,5.11 66.40,5.21 65.30,5.36 64.20,5.51 62.70,5.47 61.19,5.43 59.92,5.41 58.66,5.38 57.18,5.36 55.69,5.34 54.35,5.31 53.00,5.28 51.87,5.24 50.73,5.20 49.64,5.15 48.56,5.09 47.46,5.03 46.37,4.97 45.24,4.89 44.11,4.82 42.75,4.72 41.40,4.62 40.09,4.49 38.78,4.35 37.39,4.09 36.01,3.82 34.95,3.48 33.89,3.15 32.33,2.94 30.77,2.74 28.41,2.76 26.06,2.78 23.16,2.80 20.26,2.82 16.95,2.82 13.65,2.83 10.53,2.80 7.42,2.76 5.17,2.62 2.93,2.47 1.31,2.20 -0.29,1.93 -0.52,1.87 -0.75,1.81 -0.95,1.69 -1.16,1.57 -1.33,1.41 -1.50,1.25 -1.63,1.05 -1.76,0.85 -1.84,0.63 -1.91,0.40 -1.93,0.17 -1.96,-0.06 -1.92,-0.29 -1.88,-0.52 -1.79,-0.74 -1.70,-0.96 -1.56,-1.15 -1.42,-1.34 -1.24,-1.49 -1.06,-1.64 -0.84,-1.75 -0.63,-1.85 -0.40,-1.90 -0.17,-1.95 0.06,-1.94 0.29,-1.93 0.29,-1.93 L 0.29,-1.93 Z"></path></g><g transform="translate(522.9719461149639 46.42404351112168) rotate(0 -63.0916467960501 71.11360875980898)" stroke="none"><path fill="#d3d3d3" d="M 2.52,-0.56 Q 2.52,-0.56 2.79,0.55 3.06,1.67 3.22,2.93 3.37,4.18 3.43,5.48 3.49,6.77 3.56,8.88 3.64,10.99 3.64,12.19 3.65,13.40 3.65,14.65 3.64,15.91 3.68,17.88 3.73,19.86 3.78,21.28 3.83,22.70 3.85,24.68 3.86,26.66 3.85,28.92 3.84,31.18 3.82,32.44 3.80,33.69 3.76,35.10 3.72,36.51 3.72,37.73 3.71,38.95 3.72,40.09 3.72,41.23 3.76,43.01 3.80,44.80 3.66,46.40 3.53,48.01 3.37,50.01 3.22,52.00 3.14,54.05 3.05,56.10 3.04,57.17 3.03,58.25 3.02,59.33 3.01,60.41 3.01,61.49 3.00,62.57 3.00,63.65 3.00,64.74 2.99,65.82 2.99,66.90 3.18,68.82 3.36,70.73 3.52,72.08 3.68,73.43 3.99,74.85 4.31,76.28 4.48,78.00 4.65,79.72 4.71,81.01 4.77,82.29 5.07,84.15 5.37,86.00 5.56,87.19 5.75,88.38 5.86,89.50 5.96,90.62 6.00,91.75 6.04,92.87 6.15,93.94 6.26,95.01 6.53,97.13 6.80,99.25 6.88,101.05 6.96,102.86 7.17,104.17 7.38,105.48 7.62,106.58 7.86,107.68 7.93,109.25 8.00,110.81 8.03,112.02 8.06,113.24 8.10,114.61 8.14,115.99 8.17,117.29 8.20,118.60 7.81,121.82 7.43,125.04 5.49,125.71 3.54,126.38 1.73,126.49 -0.07,126.59 -2.19,126.46 -4.31,126.34 -6.69,126.17 -9.07,126.01 -11.64,125.99 -14.22,125.98 -16.43,126.04 -18.65,126.11 -20.76,126.12 -22.88,126.13 -24.78,126.16 -26.67,126.18 -28.15,126.37 -29.63,126.56 -31.20,126.66 -32.78,126.77 -34.07,126.86 -35.36,126.95 -36.66,127.01 -37.96,127.07 -39.02,127.24 -40.07,127.42 -41.13,127.63 -42.19,127.85 -43.25,128.09 -44.32,128.32 -45.39,128.57 -46.47,128.81 -48.09,129.29 -49.72,129.77 -51.61,130.27 -53.51,130.76 -55.21,131.25 -56.92,131.73 -58.00,131.87 -59.07,132.01 -60.54,132.21 -62.01,132.42 -63.83,132.72 -65.65,133.03 -67.69,133.42 -69.73,133.80 -71.59,134.08 -73.44,134.35 -75.15,134.76 -76.86,135.17 -78.27,135.58 -79.68,136.00 -81.64,136.45 -83.60,136.91 -85.70,137.38 -87.80,137.85 -89.66,138.39 -91.51,138.94 -92.83,139.39 -94.14,139.84 -95.70,140.24 -97.25,140.64 -98.34,140.96 -99.43,141.27 -100.99,141.57 -102.55,141.86 -104.29,142.13 -106.03,142.40 -107.68,142.49 -109.32,142.58 -111.22,142.61 -113.12,142.64 -114.88,142.67 -116.64,142.69 -118.26,142.72 -119.87,142.74 -121.05,142.78 -122.23,142.81 -123.57,143.06 -124.90,143.30 -126.15,143.91 -127.40,144.52 -131.39,143.49 -135.38,142.46 -135.55,141.92 -135.71,141.37 -135.69,140.81 -135.67,140.25 -135.48,139.72 -135.28,139.19 -134.92,138.75 -134.57,138.31 -134.09,138.01 -133.61,137.71 -133.06,137.57 -132.51,137.44 -131.95,137.49 -131.39,137.54 -130.87,137.76 -130.35,137.99 -129.94,138.37 -129.52,138.75 -129.24,139.24 -128.97,139.73 -128.86,140.29 -128.76,140.85 -128.84,141.40 -128.92,141.96 -129.17,142.47 -129.43,142.97 -129.83,143.37 -130.23,143.77 -130.74,144.02 -131.24,144.26 -131.80,144.34 -132.36,144.41 -132.92,144.30 -133.47,144.19 -133.96,143.91 -134.45,143.63 -134.82,143.21 -135.20,142.79 -135.42,142.27 -135.64,141.75 -135.68,141.18 -135.73,140.62 -135.59,140.07 -135.45,139.52 -135.14,139.05 -134.83,138.58 -134.39,138.23 -133.95,137.87 -133.42,137.68 -132.89,137.49 -132.32,137.48 -131.76,137.47 -131.22,137.63 -130.68,137.80 -130.22,138.13 -129.77,138.47 -129.44,138.93 -129.11,139.39 -129.11,139.39 -129.11,139.39 -129.15,138.67 -129.19,137.95 -128.16,137.61 -127.14,137.26 -125.96,137.01 -124.77,136.75 -123.50,136.59 -122.23,136.43 -121.06,136.46 -119.88,136.50 -118.26,136.52 -116.65,136.55 -114.89,136.57 -113.13,136.59 -111.27,136.61 -109.41,136.62 -107.93,136.64 -106.46,136.65 -104.71,136.48 -102.95,136.32 -101.49,136.18 -100.02,136.04 -98.94,135.91 -97.86,135.79 -96.64,135.71 -95.43,135.63 -94.16,135.29 -92.89,134.94 -91.01,134.21 -89.14,133.48 -87.15,132.69 -85.17,131.91 -83.38,131.19 -81.59,130.47 -80.06,129.86 -78.53,129.26 -77.26,128.89 -76.00,128.53 -74.25,128.32 -72.51,128.11 -70.71,127.84 -68.91,127.58 -66.89,127.20 -64.87,126.83 -62.95,126.50 -61.04,126.17 -59.63,126.12 -58.22,126.06 -56.52,125.67 -54.82,125.29 -52.99,124.92 -51.16,124.55 -49.29,124.17 -47.43,123.79 -46.32,123.62 -45.21,123.44 -44.08,123.27 -42.95,123.11 -41.76,122.96 -40.58,122.82 -39.29,122.74 -38.00,122.65 -36.72,122.69 -35.45,122.73 -34.19,122.77 -32.93,122.81 -31.45,122.80 -29.97,122.79 -28.35,122.70 -26.74,122.61 -24.88,122.57 -23.02,122.53 -20.99,122.38 -18.96,122.24 -16.70,121.94 -14.45,121.64 -11.78,121.36 -9.12,121.07 -6.80,120.85 -4.48,120.64 -2.58,120.39 -0.67,120.14 0.52,119.97 1.73,119.79 3.12,119.40 4.52,119.01 4.03,121.61 3.54,124.21 2.90,123.13 2.26,122.05 1.79,120.32 1.33,118.60 1.36,117.29 1.39,115.99 1.43,114.63 1.46,113.26 1.48,112.09 1.50,110.92 1.48,109.34 1.46,107.76 1.26,106.41 1.07,105.06 0.94,103.26 0.80,101.47 0.72,99.70 0.64,97.92 0.45,96.82 0.25,95.72 0.08,94.40 -0.08,93.09 -0.18,91.27 -0.28,89.44 -0.50,88.31 -0.72,87.19 -0.92,86.13 -1.13,85.08 -1.36,82.89 -1.59,80.70 -1.75,79.64 -1.90,78.57 -1.93,77.38 -1.96,76.19 -2.30,74.51 -2.63,72.84 -2.68,71.03 -2.73,69.21 -2.86,68.06 -2.99,66.91 -2.99,65.82 -2.99,64.73 -3.00,63.65 -3.00,62.56 -3.00,61.47 -3.00,60.38 -3.00,59.29 -3.00,58.19 -2.99,57.08 -2.98,55.97 -2.96,54.82 -2.94,53.67 -2.88,52.39 -2.82,51.11 -2.66,49.36 -2.50,47.61 -2.29,46.20 -2.07,44.78 -2.03,43.01 -1.99,41.23 -1.98,40.09 -1.98,38.95 -1.98,37.73 -1.99,36.51 -2.03,35.10 -2.06,33.69 -2.08,32.44 -2.10,31.18 -2.12,28.92 -2.13,26.66 -2.11,24.68 -2.10,22.70 -2.05,21.28 -1.99,19.86 -1.95,17.89 -1.91,15.92 -1.92,14.67 -1.92,13.41 -1.93,12.22 -1.93,11.03 -1.91,9.00 -1.89,6.97 -1.98,4.89 -2.07,2.81 -2.29,1.68 -2.52,0.56 -2.55,0.25 -2.58,-0.05 -2.54,-0.36 -2.49,-0.67 -2.37,-0.96 -2.26,-1.25 -2.07,-1.50 -1.89,-1.75 -1.65,-1.96 -1.42,-2.16 -1.14,-2.30 -0.86,-2.43 -0.55,-2.50 -0.25,-2.57 0.05,-2.56 0.37,-2.56 0.67,-2.47 0.97,-2.39 1.24,-2.24 1.51,-2.09 1.74,-1.88 1.97,-1.67 2.14,-1.40 2.31,-1.14 2.42,-0.85 2.52,-0.56 2.52,-0.56 L 2.52,-0.56 Z"></path></g></svg>